<svg width="191" height="45" viewBox="0 0 191 45" fill="none" xmlns="http://www.w3.org/2000/svg">
<path d="M86.9043 39.1262H90.0945V39.754H87.5742V41.2263H89.9195V41.8541H87.5742V43.4378H90.2192V44.0655H86.9043V39.1262Z" fill="#E71F2F"/>
<path d="M92.9348 39.1262H93.9331L95.503 42.8652H95.5306L97.0874 39.1262H98.0844V44.0655H97.4145V40.0055H97.4001L95.7319 44.0655H95.2849L93.6179 40.0055H93.6035V44.0655H92.9336V39.1262H92.9348Z" fill="#E71F2F"/>
<path d="M101.122 39.1262H102.86C103.176 39.1262 103.436 39.1693 103.641 39.2544C103.846 39.3406 104.007 39.4497 104.127 39.5826C104.245 39.7156 104.328 39.8642 104.375 40.0295C104.422 40.1948 104.444 40.3541 104.444 40.5075C104.444 40.6608 104.42 40.8202 104.375 40.9843C104.328 41.1496 104.247 41.2982 104.127 41.4311C104.008 41.5641 103.846 41.6731 103.641 41.7594C103.436 41.8444 103.176 41.8876 102.86 41.8876H101.791V44.0643H101.121V39.125L101.122 39.1262ZM101.792 41.303H102.672C102.802 41.303 102.932 41.2922 103.06 41.2706C103.188 41.2502 103.302 41.2107 103.402 41.1556C103.502 41.0993 103.583 41.019 103.643 40.9148C103.703 40.8106 103.732 40.674 103.732 40.5075C103.732 40.341 103.703 40.2032 103.643 40.099C103.583 39.9935 103.501 39.9145 103.402 39.8582C103.302 39.8031 103.188 39.7635 103.06 39.7432C102.932 39.7216 102.802 39.7108 102.672 39.7108H101.792V41.3018V41.303Z" fill="#E71F2F"/>
<path d="M109.343 44.1911C108.967 44.1911 108.62 44.1253 108.304 43.9923C107.986 43.8593 107.717 43.6772 107.49 43.4448C107.265 43.2124 107.088 42.938 106.959 42.6206C106.831 42.3043 106.768 41.9629 106.768 41.5951C106.768 41.2273 106.832 40.8859 106.959 40.5708C107.088 40.2533 107.264 39.9802 107.49 39.7466C107.716 39.5142 107.986 39.3321 108.304 39.1991C108.62 39.0661 108.967 39.0002 109.343 39.0002C109.719 39.0002 110.067 39.0661 110.383 39.1991C110.701 39.3321 110.97 39.5142 111.197 39.7466C111.422 39.979 111.6 40.2533 111.728 40.5708C111.856 40.8871 111.92 41.2285 111.92 41.5951C111.92 41.9617 111.856 42.3043 111.728 42.6206C111.6 42.938 111.423 43.2112 111.197 43.4448C110.972 43.6772 110.701 43.8593 110.383 43.9923C110.067 44.1253 109.721 44.1911 109.343 44.1911ZM109.343 43.5634C109.627 43.5634 109.883 43.5107 110.111 43.4065C110.339 43.301 110.535 43.1609 110.698 42.9848C110.861 42.8075 110.987 42.599 111.075 42.3594C111.163 42.1198 111.208 41.8658 111.208 41.5951C111.208 41.3243 111.163 41.0716 111.075 40.832C110.987 40.5924 110.861 40.3839 110.698 40.2066C110.535 40.0293 110.34 39.8892 110.111 39.7849C109.883 39.6807 109.628 39.628 109.343 39.628C109.058 39.628 108.804 39.6807 108.575 39.7849C108.347 39.8904 108.152 40.0305 107.989 40.2066C107.826 40.3839 107.7 40.5924 107.612 40.832C107.524 41.0716 107.479 41.3255 107.479 41.5951C107.479 41.8646 107.524 42.1198 107.612 42.3594C107.7 42.599 107.826 42.8075 107.989 42.9848C108.152 43.1621 108.347 43.3022 108.575 43.4065C108.803 43.5107 109.059 43.5634 109.343 43.5634Z" fill="#E71F2F"/>
<path d="M114.068 39.1262H114.766L115.858 43.0748H115.872L117.034 39.1262H117.803L118.965 43.0748H118.98L120.071 39.1262H120.77L119.332 44.0655H118.62L117.426 40.0331H117.412L116.226 44.0655H115.514L114.07 39.1262H114.068Z" fill="#E71F2F"/>
<path d="M123.225 39.1262H126.415V39.754H123.895V41.2263H126.24V41.8541H123.895V43.4378H126.539V44.0655H123.225V39.1262Z" fill="#E71F2F"/>
<path d="M129.302 39.1262H131.04C131.356 39.1262 131.616 39.1693 131.821 39.2544C132.026 39.3407 132.187 39.4497 132.306 39.5827C132.425 39.7156 132.508 39.8642 132.555 40.0295C132.601 40.1948 132.624 40.3542 132.624 40.5075C132.624 40.6609 132.595 40.8178 132.54 40.9639C132.484 41.1101 132.404 41.2431 132.299 41.3629C132.195 41.4815 132.067 41.5809 131.916 41.6624C131.765 41.7438 131.596 41.793 131.41 41.8121L132.812 44.0655H131.974L130.719 41.8888H129.971V44.0655H129.301V39.1262H129.302ZM129.972 41.303H130.852C130.982 41.303 131.112 41.2922 131.24 41.2706C131.368 41.2503 131.482 41.2107 131.581 41.1556C131.682 41.0993 131.762 41.019 131.822 40.9148C131.882 40.8106 131.912 40.674 131.912 40.5075C131.912 40.341 131.882 40.2032 131.822 40.099C131.762 39.9936 131.681 39.9145 131.581 39.8582C131.482 39.8031 131.368 39.7636 131.24 39.7432C131.112 39.7216 130.982 39.7108 130.852 39.7108H129.972V41.3018V41.303Z" fill="#E71F2F"/>
<path d="M140.302 41.9593L138.432 39.1272H139.291L140.637 41.2968L142.026 39.1272H142.842L140.971 41.9593V44.0665H140.3V41.9593H140.302Z" fill="#E71F2F"/>
<path d="M147.493 44.1911C147.114 44.1911 146.769 44.1253 146.452 43.9923C146.136 43.8593 145.865 43.6772 145.639 43.4448C145.413 43.2124 145.236 42.938 145.108 42.6206C144.98 42.3043 144.916 41.9629 144.916 41.5951C144.916 41.2273 144.981 40.8859 145.108 40.5708C145.236 40.2533 145.412 39.9802 145.639 39.7466C145.865 39.5142 146.136 39.3321 146.452 39.1991C146.769 39.0661 147.114 39.0002 147.493 39.0002C147.871 39.0002 148.216 39.0661 148.533 39.1991C148.849 39.3321 149.12 39.5142 149.344 39.7466C149.571 39.979 149.748 40.2533 149.875 40.5708C150.002 40.8871 150.067 41.2285 150.067 41.5951C150.067 41.9617 150.002 42.3043 149.875 42.6206C149.748 42.938 149.571 43.2112 149.344 43.4448C149.119 43.6772 148.849 43.8593 148.533 43.9923C148.216 44.1253 147.869 44.1911 147.493 44.1911ZM147.493 43.5634C147.777 43.5634 148.032 43.5107 148.258 43.4065C148.486 43.301 148.683 43.1609 148.846 42.9848C149.009 42.8075 149.136 42.599 149.224 42.3594C149.312 42.1198 149.356 41.8658 149.356 41.5951C149.356 41.3243 149.312 41.0716 149.224 40.832C149.137 40.5924 149.009 40.3839 148.846 40.2066C148.683 40.0293 148.487 39.8892 148.258 39.7849C148.032 39.6807 147.775 39.628 147.493 39.628C147.21 39.628 146.951 39.6807 146.723 39.7849C146.497 39.8904 146.301 40.0305 146.138 40.2066C145.975 40.3839 145.85 40.5924 145.762 40.832C145.675 41.0716 145.628 41.3255 145.628 41.5951C145.628 41.8646 145.673 42.1198 145.762 42.3594C145.85 42.599 145.975 42.8075 146.138 42.9848C146.301 43.1621 146.497 43.3022 146.723 43.4065C146.951 43.5107 147.209 43.5634 147.493 43.5634Z" fill="#E71F2F"/>
<path d="M153.427 39.1262V42.1547C153.427 42.3081 153.446 42.4674 153.489 42.6315C153.531 42.7969 153.599 42.949 153.697 43.088C153.796 43.2269 153.924 43.3408 154.082 43.4306C154.24 43.5181 154.436 43.5624 154.669 43.5624C154.903 43.5624 155.096 43.5181 155.257 43.4306C155.414 43.342 155.542 43.2281 155.64 43.088C155.738 42.949 155.808 42.7969 155.85 42.6315C155.891 42.4674 155.912 42.3069 155.912 42.1547V39.1262H156.582V42.259C156.582 42.5477 156.533 42.8088 156.436 43.0437C156.338 43.2797 156.203 43.4833 156.03 43.6546C155.858 43.8259 155.657 43.9589 155.423 44.0524C155.192 44.1458 154.939 44.1913 154.671 44.1913C154.402 44.1913 154.149 44.1446 153.918 44.0524C153.683 43.9589 153.482 43.8271 153.308 43.6546C153.137 43.4833 153.001 43.2797 152.904 43.0437C152.806 42.8088 152.758 42.5477 152.758 42.259V39.1262H153.429H153.427Z" fill="#E71F2F"/>
<path d="M159.573 39.1262H161.311C161.628 39.1262 161.888 39.1693 162.094 39.2544C162.297 39.3407 162.459 39.4497 162.578 39.5827C162.697 39.7156 162.778 39.8642 162.826 40.0295C162.873 40.1948 162.896 40.3542 162.896 40.5075C162.896 40.6609 162.867 40.8178 162.81 40.9639C162.755 41.1101 162.675 41.2431 162.57 41.3629C162.465 41.4815 162.338 41.5809 162.186 41.6624C162.035 41.7438 161.866 41.793 161.68 41.8121L163.084 44.0655H162.246L160.989 41.8888H160.241V44.0655H159.572V39.1262H159.573ZM160.241 41.303H161.121C161.251 41.303 161.382 41.2922 161.509 41.2706C161.636 41.2503 161.75 41.2107 161.852 41.1556C161.951 41.0993 162.031 41.019 162.093 40.9148C162.151 40.8106 162.182 40.674 162.182 40.5075C162.182 40.341 162.151 40.2032 162.093 40.099C162.03 39.9936 161.951 39.9145 161.852 39.8582C161.751 39.8031 161.636 39.7636 161.509 39.7432C161.382 39.7216 161.251 39.7108 161.121 39.7108H160.241V41.3018V41.303Z" fill="#E71F2F"/>
<path d="M169.406 39.1262H170.075V43.4378H172.344V44.0655H169.406V39.1262Z" fill="#E71F2F"/>
<path d="M174.844 39.1262H175.515V44.0655H174.844V39.1262Z" fill="#E71F2F"/>
<path d="M178.598 39.1262H181.704V39.754H179.269V41.303H181.534V41.9307H179.269V44.0655H178.598V39.1262Z" fill="#E71F2F"/>
<path d="M184.418 39.1262H187.606V39.754H185.085V41.2263H187.43V41.8541H185.085V43.4378H187.733V44.0655H184.418V39.1262Z" fill="#E71F2F"/>
<path d="M27.5948 4.95396C27.1951 5.81268 27.0047 6.74566 27.0309 7.69329L29.2972 8.0259L28.8682 10.2841L30.963 11.2129L29.9773 13.2766L31.7728 14.6802L30.3352 16.4458L31.7687 18.2145L29.9847 19.6213L31.008 21.6441L28.977 22.6514L29.5672 24.8385L27.3793 25.4169L27.5216 27.6782L25.2594 27.8048L24.9267 30.0546L22.6834 29.6958L21.8735 31.8233L19.7568 30.9688L18.4614 32.8567L16.6136 31.5053L14.8704 33.0052L13.4401 31.1989L11.3453 32.1622L10.4832 30.0201L8.19799 30.3443L7.9814 28.0495L5.70459 27.7138L6.13044 25.4556L4.03569 24.5299L5.02552 22.4663L3.22584 21.0595L4.66349 19.2939L3.23316 17.5283L5.01401 16.1215L3.9907 14.0955L6.02163 13.0914L5.4315 10.9044L7.61937 10.3218L7.47707 8.06042L9.74342 7.93386L10.072 5.68717L12.3153 6.04174L13.1293 3.91428L15.2419 4.76882L16.5372 2.88403L18.3892 4.23539L20.1293 2.7355L21.5512 4.52721C22.4176 4.06072 23.1636 3.40386 23.7391 2.6058C21.6601 1.69478 19.3634 1.1875 16.9526 1.1875C7.60472 1.1875 0 8.78945 0 18.1339C0 26.672 14.3985 41.3833 16.9526 43.9207C19.5025 41.3833 33.9053 26.672 33.9053 18.1339C33.9053 12.8163 31.4412 8.06565 27.5959 4.95291L27.5948 4.95396Z" fill="#E71F2F"/>
<path d="M30.0975 18.0436L28.4956 19.3082L29.4247 21.1501L27.5665 22.0632L28.1116 24.0484L26.1089 24.5934L26.2366 26.6434L24.1858 26.7553L23.897 28.7887L21.8629 28.4686L21.1263 30.39L19.2356 29.6212L18.0825 31.3031L16.4482 30.1024L14.9101 31.4318L13.6608 29.8461L11.8182 30.6787L11.0648 28.8054L9.07888 29.0941L8.88635 27.0921L7.2206 26.8359L7.33255 24.8339L5.41044 23.9857L6.29146 22.1438L4.67383 20.8792L5.97128 19.2935L4.67383 17.7079L6.29146 16.4266L5.36231 14.5847L7.2049 13.6716L6.6765 11.6864L8.66244 11.1582L8.53374 9.10811L10.6002 8.9805L10.889 6.94718L12.9398 7.36347L13.5007 5.36153L15.5515 6.1303L16.6888 4.44946L18.3389 5.63452L19.877 4.32186L21.1263 5.90751L21.1744 5.89182C21.9111 5.52365 22.7764 5.13874 23.401 4.57916C24.2339 3.82608 24.7947 2.81778 25.387 1.87329C25.7877 1.26455 26.156 0.624431 26.54 0C26.9889 0.304371 27.7098 0.736347 28.4307 1.10452C28.3826 1.10452 26.8445 3.71416 26.7325 3.95473C26.0598 5.2517 25.7071 6.74113 25.8515 8.21383L25.8997 8.66254L27.8856 8.95122L27.5173 10.9364L29.3756 11.7533L28.4946 13.5952L30.0965 14.8598L28.8147 16.4454L30.0965 18.0468L30.0975 18.0436Z" fill="#78A240"/>
<path d="M27.0733 10.5747L27.0534 9.47958L25.9746 9.13965C26.3147 9.46703 26.8232 10.0172 27.0743 10.5757L27.0733 10.5747Z" fill="#97BB41"/>
<path d="M27.5254 11.562L28.374 12.1697L27.8654 13.2721C27.8654 13.2721 27.8654 12.2827 27.5264 11.562H27.5254Z" fill="#97BB41"/>
<path d="M28.0488 14.1624C28.0488 14.1624 28.2748 15.3213 28.1618 16.0137L28.8116 14.996L28.0488 14.1624Z" fill="#97BB41"/>
<path d="M28.2172 16.9456L28.7425 17.8555L27.9766 18.5563C27.9766 18.5563 28.1586 18.0574 28.2172 16.9456Z" fill="#97BB41"/>
<path d="M27.7954 19.7852L28.0947 20.7924L27.1875 21.2955C27.1875 21.2955 27.4815 20.852 27.7954 19.7852Z" fill="#97BB41"/>
<path d="M26.8053 22.4868L27.0167 23.5579L25.873 23.8225C25.873 23.8225 26.2591 23.4564 26.8053 22.4868Z" fill="#97BB41"/>
<path d="M25.1869 24.7043L25.211 25.7953L24.0391 25.8591C24.0391 25.8591 24.4817 25.5652 25.1869 24.7043Z" fill="#97BB41"/>
<path d="M23.2338 26.6267L23.124 27.7124L21.9531 27.6329C21.9531 27.6329 22.4282 27.3955 23.2338 26.6267Z" fill="#97BB41"/>
<path d="M21.0193 28.2092L20.6876 29.2489L19.5586 28.9288C19.5586 28.9288 20.0734 28.7939 21.0203 28.2092H21.0193Z" fill="#97BB41"/>
<path d="M18.4555 29.249L17.8905 30.1831L16.8672 29.6088C16.8672 29.6088 17.3987 29.5984 18.4566 29.249H18.4555Z" fill="#97BB41"/>
<path d="M15.7686 29.7239L15.1188 30.4205L14.3477 29.7469C14.3477 29.7469 14.8039 29.8327 15.7686 29.7239Z" fill="#97BB41"/>
<path d="M12.8596 29.6413L12.0654 30.0189L11.6992 29.3108C11.6992 29.3108 11.9932 29.407 12.8596 29.6413Z" fill="#97BB41"/>
<path d="M10.3883 28.4696L9.51039 28.5323L9.42773 27.7395C9.42773 27.7395 9.6663 27.9361 10.3872 28.4696H10.3883Z" fill="#97BB41"/>
<path d="M19.3642 9.50456L17.8292 9.39369L17.8544 11.5598L16.0473 11.4772L16.085 13.0963L14.4506 13.2009L14.6296 14.8117L12.9094 14.979L13.3907 16.526L11.8129 17.0103L12.5317 18.4411L11.2709 19.1064L12.2178 20.6805L10.2559 20.9378C10.2559 20.9378 11.296 20.5215 11.4644 20.4065L10.5363 18.9662L11.8265 18.2298L11.1819 16.8021L12.7619 16.2865L12.2366 14.6025L14.1545 14.3985L13.9913 12.7501L15.6037 12.7334L15.5974 11.0107L17.3919 11.1059L17.3082 8.79122L18.9949 8.91883L19.5274 7.05704L22.6643 7.97643L23.2273 5.74856L21.1974 6.77986C21.1974 6.77986 19.7346 5.44001 19.5724 5.22559L18.5125 6.77986L16.9995 5.65965C16.9995 5.65965 16.0494 7.0424 16.016 7.08423L14.1148 6.46085L13.6711 8.33309L11.6862 7.94191L11.4707 9.86645L9.5329 9.88214L9.72961 11.7335L7.76042 12.1592L8.39868 14.0105L6.39182 14.8682L7.48419 16.662L5.88016 17.8387C6.1114 18.1525 7.14308 19.1869 7.14308 19.1869C7.14308 19.1869 5.94922 20.4253 5.65625 20.761L7.29689 21.8823L6.40437 23.5171L8.293 24.1813L8.1643 26.1456L9.65532 26.3297L9.50674 24.585L10.912 24.3298L10.6033 22.9575L11.9656 22.5747L11.4979 21.33L13.1103 20.8803L12.6531 19.4411L14.0405 19.0582L13.6586 17.5688L15.2333 17.4464L14.8734 15.934L16.446 15.8189L16.13 14.3044L17.7445 14.1266L17.5488 12.4604L19.0179 12.2962L18.9363 10.5735L20.2358 10.5348L20.5748 8.54124L22.3839 8.37912L19.8487 7.66996L19.3684 9.50351L19.3642 9.50456ZM8.22603 22.7347L9.061 21.5455L7.55534 20.7569L8.92289 19.7507L7.69345 18.6158L9.061 18.0008L8.0942 16.8042L9.76937 16.1296L9.15936 14.5126L10.6734 14.1339L10.5353 12.4761L12.0326 12.269L11.9091 10.3737L13.645 10.4731L13.8145 8.84143L15.362 9.05689L15.7052 7.49529L18.0176 8.26825C18.0176 8.26825 16.3979 8.01094 16.2294 8.00258L15.8642 9.48468L14.2665 9.3006L14.1974 11.0275L12.5903 10.9814L12.6771 12.7763L11.0783 12.8851L11.364 14.5941L9.86459 14.864L10.4924 16.4068L8.91766 16.9695L9.84366 18.1389L8.52005 18.7246L9.73798 19.8396L8.41751 20.7035L9.74216 21.3311L8.92289 22.513L10.2873 22.74L8.22603 22.7368V22.7347Z" fill="#97BB41"/>
<path d="M26.3497 14.903C26.2859 13.7661 26.1258 12.581 25.6131 11.5403C25.2773 10.852 24.572 9.92325 23.7067 9.8584C22.9816 9.82074 22.5024 10.5163 22.1864 11.0748C21.4854 12.3164 20.6713 13.4293 19.8573 14.5986C18.2836 16.8589 16.7235 19.1297 15.1655 21.4004C14.3944 22.5248 13.6348 23.6565 12.8542 24.7747C12.4053 25.4179 11.3893 26.3101 11.8047 27.1845C12.0611 27.7127 13.166 28.0014 14.8328 27.9533C16.7214 27.8895 18.5609 27.2797 20.0969 26.1752C20.7508 25.7045 21.3525 25.1418 21.8966 24.5477C22.2596 24.1523 22.9105 23.5164 22.8906 22.9244C22.8581 21.9956 18.8214 18.1528 18.8214 18.1528C20.0069 18.9058 22.4417 20.6191 23.6272 22.4924C25.0366 21.7874 26.6071 20.0909 26.3508 14.902L26.3497 14.903ZM20.9486 23.5561C20.9486 23.5561 18.2721 27.4355 13.8252 26.626C13.8252 26.626 17.0667 26.9094 20.9486 23.5561Z" fill="#F5CA3C"/>
<path d="M187.428 33.1039C185.613 33.1039 183.969 33.1577 182.329 33.0866C181.174 33.0363 180.345 32.343 179.771 31.362C178.785 29.6772 177.808 27.9873 176.825 26.3008C176.615 25.942 176.451 25.7254 175.936 24.8847C175.748 25.2643 175.417 25.6526 175.154 25.9992C173.496 28.1866 172.404 29.4675 170.659 31.1852C169.064 32.4158 168.095 33.0814 166.283 33.1715C165.043 33.2114 163.765 33.1594 162.25 33.1594C162.64 32.6966 162.883 32.3846 163.15 32.0934C166.311 28.6511 169.456 25.195 172.652 21.7856C173.285 21.1097 173.345 20.6087 172.868 19.8028C170.935 16.5442 169.08 13.2406 167.199 9.95084C167.015 9.62845 166.862 9.28873 166.645 8.85714C168.437 8.85714 170.132 8.67514 171.762 8.93167C172.614 9.06513 173.559 9.8139 174.084 10.554C175.168 12.0741 175.998 13.7744 176.936 15.3985C177.122 15.7209 177.326 16.0329 177.607 16.4853C178.762 15.22 179.835 14.0431 180.907 12.8645C181.165 12.5819 181.403 12.3029 181.661 11.9996C184.506 8.54168 187.149 8.43075 190.82 8.90914C190.367 9.41005 189.97 9.85377 189.568 10.294C186.797 13.3151 184.057 16.3639 181.235 19.3365C180.39 20.2257 180.272 20.8635 180.952 21.9572C183.053 25.3371 185.008 28.8071 187.015 32.246C187.145 32.4695 187.241 32.7139 187.428 33.1056V33.1039Z" fill="#E71F2F"/>
<path d="M44.5666 32.0397C42.7599 32.0345 41.9346 31.4625 41.9051 30.2371C41.8721 28.899 42.8726 28.119 44.6793 28.1103C47.542 28.0965 50.4082 28.0393 53.2691 28.1277C54.6285 28.1693 55.2111 27.8573 55.4122 26.3615C55.9983 22.0127 56.8115 17.6968 57.5241 13.3654C57.7859 11.769 57.3334 11.1884 55.7053 11.1606C53.2518 11.1173 50.7966 11.152 48.3431 11.1381C46.6855 11.1294 45.8393 10.5193 45.8098 9.3459C45.7769 8.08234 46.7132 7.24863 48.2755 7.2469C55.3307 7.24343 62.3895 7.17237 69.443 7.29717C77.0861 7.43236 81.5682 12.9806 79.9436 20.2673C78.579 26.3857 74.6864 30.1539 68.6177 31.6445C67.5392 31.9097 66.3948 31.9929 65.2782 32.0085C61.904 32.0535 58.5298 32.0258 55.1539 32.0258C55.1539 32.0327 48.0986 32.0518 44.5701 32.0414L44.5666 32.0397ZM61.7445 26.6457C63.7159 26.5452 65.3961 26.5573 67.0485 26.3511C69.3078 26.0685 71.0573 24.824 72.2571 22.9244C73.7552 20.5515 74.3309 17.9689 72.9993 15.3604C71.7456 12.9043 69.3234 12.7015 66.9046 12.6859C64.1078 12.6668 64.0748 12.6634 63.5963 15.4141C62.9686 19.0262 62.3999 22.6488 61.7427 26.6474L61.7445 26.6457Z" fill="#E71F2F"/>
<path d="M93.4785 32.0257C93.4161 31.3359 93.3658 30.7899 93.2999 30.0741C92.9375 30.3323 92.6878 30.5057 92.4433 30.6877C90.2638 32.3152 87.7947 32.83 85.1679 32.3672C81.7711 31.7692 80.0026 29.3288 80.4516 25.5728C80.9735 21.2153 81.7607 16.8908 82.4404 12.4987H88.5039C88.249 14.2164 88.0028 15.889 87.7497 17.5616C87.4046 19.8322 87.0284 22.0976 86.7128 24.3716C86.3608 26.9022 87.9178 28.2767 90.3921 27.6666C92.3965 27.1726 93.6952 25.6698 94.0125 23.6038C94.5795 19.9102 95.1899 16.2218 95.7898 12.4883H101.869C101.643 13.9616 101.435 15.4036 101.203 16.8405C100.437 21.6001 99.6443 26.3562 98.9108 31.1227C98.8033 31.8195 98.6005 32.0725 97.8757 32.0448C96.4383 31.9876 94.9974 32.0275 93.4768 32.0275L93.4785 32.0257Z" fill="#E71F2F"/>
<path d="M118.777 12.3566C118.498 14.1176 118.229 15.818 117.997 17.2843C116.535 17.3987 115.134 17.3051 113.851 17.6518C111.608 18.2567 110.323 19.8825 109.967 22.1981C109.501 25.2418 109.05 28.2871 108.554 31.3256C108.513 31.5838 108.187 31.9929 107.982 31.9998C106.224 32.0535 104.462 32.031 102.541 32.031C103.562 25.6006 104.564 19.2828 105.574 12.9286H110.678C110.716 13.6999 110.751 14.4279 110.803 15.4869C113.007 12.9667 115.53 11.7482 118.776 12.3583L118.777 12.3566Z" fill="#E71F2F"/>
<path d="M124.556 31.9806H118.523C119.546 25.4392 120.559 18.9567 121.575 12.4622H127.63C126.602 18.9931 125.58 25.4721 124.554 31.9806H124.556Z" fill="#E71F2F"/>
<path d="M125.437 10.2454C123.67 10.2575 122.408 9.11182 122.391 7.47907C122.37 5.70073 123.801 4.31757 125.678 4.30024C127.499 4.28291 128.829 5.44074 128.86 7.06655C128.893 8.82929 127.385 10.2315 125.437 10.2454Z" fill="#E71F2F"/>
<path d="M168.715 17.4628C168.668 19.5774 168.266 21.6833 167.975 23.7893C167.966 23.8621 167.954 23.9383 167.945 24.0111L160.701 32.0743H160.698C160.942 30.4607 161.169 28.8903 161.408 27.32C161.764 24.9922 162.163 22.6678 162.478 20.3349C162.641 19.1614 162.808 17.8909 161.7 17.0642C160.493 16.1646 159.121 16.3622 157.859 16.9394C156.181 17.7003 155.274 19.1042 154.995 20.9068C154.455 24.4028 153.954 27.9006 153.393 31.3931C153.349 31.667 152.976 32.0951 152.751 32.0986C150.953 32.1593 149.155 32.1333 147.244 32.1333C148.272 25.5641 149.278 19.1354 150.289 12.6755H155.354C155.444 13.2527 155.537 13.8403 155.657 14.5977C157.271 12.984 159.113 12.0983 161.232 11.9614C162.357 11.8886 163.539 11.9267 164.635 12.1746C167.226 12.7691 168.779 14.6913 168.715 17.4611V17.4628Z" fill="#E71F2F"/>
<path d="M144.936 32.0899C143.352 32.0899 141.881 32.1124 140.413 32.0639C140.199 32.0569 139.922 31.738 139.811 31.4988C139.679 31.2198 139.698 30.8714 139.624 30.3739C139.235 30.6391 138.958 30.828 138.682 31.0204C136.489 32.5492 134.039 32.9912 131.471 32.4781C129.175 32.0205 127.526 30.7015 127.108 28.2611C126.675 25.7305 127.547 23.6766 129.635 22.1911C131.454 20.8964 133.588 20.4839 135.747 20.2516C137.21 20.0939 138.687 20.0523 140.159 20.0141C140.747 20.0003 140.95 19.7854 141 19.2151C141.144 17.6084 140.342 16.5285 138.687 16.2373C136.643 15.8768 134.72 16.3188 132.865 17.1594C132.542 17.3068 132.225 17.468 131.802 17.6742C131.271 16.4072 130.762 15.1887 130.229 13.9148C132.447 12.5853 134.8 11.8834 137.267 11.8348C139.043 11.8002 140.893 11.9319 142.594 12.4068C145.633 13.2578 147.279 15.9375 146.861 19.0678C146.285 23.3784 145.595 27.6752 144.936 32.0899ZM140.222 23.2328C138.809 23.3715 137.463 23.3854 136.175 23.6679C135.254 23.869 134.32 24.304 133.564 24.8656C132.79 25.4376 132.574 26.3891 132.922 27.3528C133.25 28.2576 133.971 28.6892 134.887 28.7169C135.563 28.7377 136.27 28.7204 136.915 28.5419C139.149 27.9196 140.021 26.5313 140.222 23.2328Z" fill="#E71F2F"/>
</svg>
